<?xml version="1.0" encoding="utf-8"?>
<svg version="1.1" width="99px" height="27px" preserveAspectRatio="none" viewBox="0 0 99 26.972" xmlns="http://www.w3.org/2000/svg" xmlns:bx="https://boxy-svg.com">
  <defs>
    <clipPath id="clippath0">
      <path d="M -3002.793 25115.169 L 41761.559 25115.169 L 41761.559 -6536.266 L -3002.793 -6536.266 L -3002.793 25115.169 Z" style="fill: none; clip-rule: nonzero;"/>
    </clipPath>
    <clipPath id="clip-1">
      <path d="M -362.138 3561.486 L 5776.8 3561.486 L 5776.8 -779.17 L -362.138 -779.17 L -362.138 3561.486 Z" style="fill: none; clip-rule: nonzero;"/>
    </clipPath>
  </defs>
  <g transform="matrix(0.018, 0, 0, 0.018, 0, 0)" bx:origin="0 0">
    <path d="M 416.343 206.308 L 416.343 355.981 L 381.429 355.981 L 381.429 0 L 463.463 0 C 504.487 0 535.083 7.73 555.267 23.188 C 578.222 40.769 589.692 69.265 589.692 108.649 C 589.692 139.894 578.623 163.498 556.485 179.453 C 531.262 197.682 490.887 206.797 435.389 206.797 C 433.756 206.797 431.109 206.717 427.448 206.564 C 423.788 206.389 421.877 206.308 421.71 206.308 L 416.343 206.308 Z M 416.343 35.154 L 416.343 171.395 L 467.123 171.395 C 495.773 171.395 517.262 164.811 531.583 151.62 C 544.599 139.566 551.111 122.562 551.111 100.584 C 551.111 78.293 544.446 62.09 531.095 52.006 C 515.796 40.448 489.094 34.673 451.016 34.673 L 431.473 34.673 C 430.824 34.833 428.753 34.957 425.253 35.038 C 421.753 35.118 418.786 35.154 416.343 35.154 Z M 690.699 221.935 C 690.699 200.614 695.664 179.453 705.596 158.459 C 716.818 134.856 732.124 116.21 751.491 102.545 C 774.117 86.584 800.565 78.614 830.848 78.614 C 864.864 78.614 895.629 91.148 923.141 116.21 C 953.417 143.883 968.554 178.235 968.554 219.244 C 968.554 258.642 955.371 292.17 928.996 319.843 C 901.331 348.981 866.17 363.557 823.527 363.557 C 790.473 363.557 760.365 349.805 733.174 322.293 C 704.867 293.636 690.699 260.188 690.699 221.935 Z M 727.318 220.717 C 727.318 255.222 737.906 282.479 759.067 302.51 C 778.274 320.732 802.03 329.854 830.359 329.854 C 858.185 329.854 881.548 320.987 900.434 303.239 C 921.755 283.216 932.416 255.718 932.416 220.717 C 932.416 190.441 923.549 165.139 905.808 144.787 C 886.922 123.13 861.619 112.309 829.871 112.309 C 803.671 112.309 780.957 120.615 761.75 137.211 C 738.796 157.074 727.318 184.9 727.318 220.717 Z M 1215.332 87.167 L 1240.978 87.167 L 1302.492 288.349 L 1367.929 87.167 L 1404.067 87.167 L 1313.488 355.981 L 1291.022 355.981 L 1228.283 151.86 L 1165.777 355.981 L 1143.311 355.981 L 1053.205 87.167 L 1088.126 87.167 L 1153.811 288.349 L 1215.332 87.167 Z M 1524.376 203.384 L 1727.512 203.384 C 1720.672 173.429 1709.122 151.058 1692.839 136.241 C 1675.747 120.615 1653.12 112.805 1624.959 112.805 C 1595.661 112.805 1572.465 121.271 1555.38 138.188 C 1540.075 153.319 1529.742 175.056 1524.376 203.384 Z M 1765.597 232.931 L 1523.391 232.931 C 1528.43 264.184 1539.462 288.065 1556.474 304.581 C 1573.479 321.111 1596.477 329.373 1625.448 329.373 C 1643.845 329.373 1660.201 325.377 1674.522 317.407 C 1692.103 307.636 1706.424 292.09 1717.5 270.768 L 1756.57 270.768 C 1742.409 302.831 1724.012 326.522 1701.385 341.813 C 1680.385 355.981 1655.877 363.061 1627.891 363.061 C 1589.805 363.061 1557.007 349.797 1529.494 323.262 C 1501.012 295.758 1486.771 261.573 1486.771 220.717 C 1486.771 197.762 1491.737 176.113 1501.669 155.769 C 1512.563 133.31 1528.109 115.488 1548.293 102.305 C 1571.08 87.488 1597.783 80.087 1628.379 80.087 C 1670.052 80.087 1703.339 93.722 1728.241 120.979 C 1753.143 148.243 1765.597 185.556 1765.597 232.931 Z M 1911.828 193.861 L 1911.828 355.981 L 1877.892 355.981 L 1877.892 87.167 L 1909.874 87.167 L 1909.874 118.165 C 1918.5 106.935 1926.156 99.045 1932.821 94.488 C 1943.722 86.992 1956.913 83.259 1972.379 83.259 L 1972.379 120.126 C 1955.448 120.126 1941.776 125.165 1931.363 135.264 C 1918.34 147.799 1911.828 167.326 1911.828 193.861 Z M 2098.791 203.384 L 2301.934 203.384 C 2295.087 173.429 2283.537 151.058 2267.254 136.241 C 2250.17 120.615 2227.536 112.805 2199.382 112.805 C 2170.083 112.805 2146.881 121.271 2129.796 138.188 C 2114.49 153.319 2104.158 175.056 2098.791 203.384 Z M 2340.013 232.931 L 2097.806 232.931 C 2102.845 264.184 2113.885 288.065 2130.89 304.581 C 2147.901 321.111 2170.893 329.373 2199.863 329.373 C 2218.261 329.373 2234.616 325.377 2248.945 317.407 C 2266.518 307.636 2280.854 292.09 2291.915 270.768 L 2330.985 270.768 C 2316.824 302.831 2298.434 326.522 2275.801 341.813 C 2254.807 355.981 2230.314 363.061 2202.306 363.061 C 2164.228 363.061 2131.422 349.797 2103.917 323.262 C 2075.435 295.758 2061.187 261.573 2061.187 220.717 C 2061.187 197.762 2066.153 176.113 2076.084 155.769 C 2086.985 133.31 2102.524 115.488 2122.708 102.305 C 2145.495 87.488 2172.198 80.087 2202.795 80.087 C 2244.467 80.087 2277.762 93.722 2302.664 120.979 C 2327.565 148.243 2340.013 185.556 2340.013 232.931 Z M 2680.061 130.131 C 2679.572 125.413 2679.251 117.64 2679.091 106.818 C 2678.916 95.99 2678.843 83.579 2678.843 69.586 L 2678.843 0 L 2713.027 0 L 2713.027 355.981 L 2680.061 355.981 L 2680.061 315.941 C 2666.877 331.889 2651.01 344.015 2632.459 352.32 C 2615.688 359.809 2597.954 363.557 2579.222 363.557 C 2543.586 363.557 2512.013 351.664 2484.493 327.9 C 2453.576 301.205 2438.11 266.86 2438.11 224.859 C 2438.11 183.85 2451.417 149.549 2478.025 121.956 C 2504.641 94.364 2538.052 80.561 2578.252 80.561 C 2600.069 80.561 2619.925 85.293 2637.826 94.729 C 2653.46 103.027 2667.54 114.839 2680.061 130.131 Z M 2680.061 223.889 C 2680.061 209.728 2677.297 195.568 2671.77 181.399 C 2665.09 164.315 2655.4 150.066 2642.719 138.677 C 2627.581 125.165 2609.264 116.874 2587.775 113.775 C 2553.919 113.775 2526.334 124.676 2505.012 146.493 C 2484.814 167.166 2474.729 192.636 2474.729 222.919 C 2474.729 251.722 2484.34 276.624 2503.547 297.624 C 2523.563 319.441 2548.465 330.343 2578.252 330.343 C 2605.115 330.343 2628.638 320.171 2648.815 299.826 C 2669.648 278.833 2680.061 253.516 2680.061 223.889 Z M 3218.228 223.889 C 3218.228 249.287 3227.11 272.723 3244.843 294.204 C 3264.699 318.297 3289.36 330.343 3318.826 330.343 C 3344.209 330.343 3366.836 322.205 3386.692 305.937 C 3410.463 286.395 3422.342 259.692 3422.342 225.851 C 3422.342 195.721 3413.555 169.929 3395.974 148.448 C 3376.767 125.012 3351.545 113.279 3320.292 113.279 C 3291.482 113.279 3267.062 124.837 3247.046 147.959 C 3227.839 170.09 3218.228 195.4 3218.228 223.889 Z M 3184.292 355.981 L 3184.292 0 L 3219.198 0 L 3219.198 80.087 C 3219.198 80.575 3218.877 87.852 3218.228 101.933 C 3217.579 116.013 3217.258 126.142 3217.258 132.333 C 3249.16 97.813 3284.154 80.561 3322.246 80.561 C 3365.385 80.561 3399.722 96.114 3425.287 127.206 C 3447.739 154.558 3458.976 187.102 3458.976 224.859 C 3458.976 261.982 3446.273 293.636 3420.876 319.843 C 3396.623 344.912 3366.924 358.992 3331.77 362.091 C 3316.303 362.091 3304.987 361.596 3297.826 360.626 C 3284.482 358.825 3272.027 354.924 3260.477 348.893 C 3245.981 341.412 3231.9 330.423 3218.228 315.941 L 3218.228 355.981 L 3184.292 355.981 Z M 3606.402 443.148 L 3642.533 355.004 L 3538.763 87.167 L 3578.314 87.167 L 3661.332 304.945 L 3748.01 87.167 L 3788.05 87.167 L 3643.518 443.148 L 3606.402 443.148 Z" style="fill: rgb(66, 74, 82); white-space: pre;"/>
    <g>
      <path d="M 80.647 1228.468 C 74.152 1207.158 68.594 1184.912 68.594 1150.612 C 68.594 967.092 218.75 851.236 370.759 851.236 C 530.186 851.236 670.142 976.369 670.142 1147.843 C 670.142 1215.499 643.252 1289.658 575.596 1355.462 C 492.18 1284.093 395.774 1205.306 225.238 1205.306 C 152.946 1205.306 107.529 1220.142 80.647 1228.468 M 108.445 1286.869 C 133.482 1276.668 158.505 1267.404 215.044 1267.404 C 229.866 1267.404 338.312 1267.404 428.222 1323.014 C 443.974 1332.278 508.869 1382.33 521.838 1392.531 C 459.739 1437.018 389.3 1437.018 370.759 1437.018 C 207.634 1437.018 126.987 1323.014 108.445 1286.869 M 727.605 1437.018 C 696.087 1437.018 667.352 1435.172 625.64 1399.956 C 701.645 1328.572 738.736 1240.522 738.736 1149.696 C 738.736 945.782 581.168 789.13 369.83 789.13 C 139.04 789.13 0 967.092 0 1146.906 C 0 1339.703 163.14 1499.13 368.906 1499.13 C 389.3 1499.13 486.622 1498.193 574.673 1439.808 C 610.826 1471.325 642.33 1499.13 727.605 1499.13 L 727.605 1437.018 Z" style="fill: rgb(66, 74, 82); fill-rule: evenodd; fill-opacity: 1;"/>
      <path d="M 874.094 789.13 L 874.094 1223.794 C 874.094 1282.264 883.525 1332.234 900.494 1369.005 C 948.595 1473.661 1046.636 1499.13 1111.692 1499.13 C 1176.755 1499.13 1274.818 1473.661 1322.903 1369.005 C 1339.881 1332.234 1349.305 1282.264 1349.305 1223.794 L 1349.305 789.13 L 1279.541 789.13 L 1279.541 1223.794 C 1279.541 1274.718 1271.981 1320.926 1255.956 1350.15 C 1213.532 1428.413 1144.7 1435.952 1111.692 1435.952 C 1078.705 1435.952 1009.866 1428.413 967.435 1350.15 C 951.41 1320.926 943.871 1274.718 943.871 1223.794 L 943.871 789.13 L 874.094 789.13 Z" style="fill: rgb(66, 74, 82); fill-rule: evenodd; fill-opacity: 1;"/>
      <g transform="matrix(7.284815, 0, 0, 7.284815, -360.398926, -775.657715)">
        <path d="M 246.828 312.346 L 259.833 312.346 L 293.646 228.806 L 327.307 312.193 L 340.771 312.193 L 299.307 214.883 L 288.139 214.883 L 246.828 312.346 Z" style="fill: rgb(125, 186, 0); fill-rule: evenodd; fill-opacity: 1; clip-path: url(#clippath0);"/>
        <path d="M 285.642 295.161 L 301.956 295.161 L 301.956 311.476 L 285.642 311.476 L 285.642 295.161 Z" style="fill: rgb(125, 186, 0); fill-rule: evenodd; fill-opacity: 1; clip-path: url(#clippath0);"/>
      </g>
      <path d="M 2277.354 853.884 L 2380.016 853.884 C 2484.588 853.884 2550.783 867.323 2614.106 908.573 C 2687.98 962.307 2734.99 1049.612 2734.99 1143.626 C 2734.99 1267.39 2666.877 1341.271 2623.702 1377.723 C 2542.143 1435.285 2444.301 1435.285 2380.016 1435.285 L 2277.354 1435.285 L 2277.354 853.884 Z M 2206.368 1499.57 L 2413.587 1499.57 C 2500.893 1499.57 2587.235 1478.46 2644.819 1441.038 C 2780.076 1354.696 2805.991 1212.709 2805.991 1146.513 C 2805.991 1061.118 2769.524 925.84 2644.819 848.131 C 2587.235 810.716 2500.893 789.606 2413.587 789.606 L 2206.368 789.606 L 2206.368 1499.57 Z" style="fill: rgb(66, 74, 82); fill-rule: evenodd; fill-opacity: 1;"/>
      <path d="M 2916.229 1499.57 L 2987.208 1499.57 L 2987.208 853.884 L 3110.972 853.884 C 3170.467 853.884 3206.918 858.689 3249.138 880.747 C 3295.179 903.775 3326.848 961.337 3326.848 1016.981 C 3326.848 1080.311 3287.508 1145.543 3209.806 1167.623 C 3178.138 1177.212 3147.439 1178.16 3057.246 1178.16 L 3298.059 1499.57 L 3387.297 1499.57 L 3186.778 1234.774 C 3323.96 1226.133 3397.848 1121.568 3397.848 1018.899 C 3397.848 931.608 3350.823 853.884 3271.203 816.47 C 3238.58 801.128 3191.562 789.606 3096.578 789.606 L 2916.229 789.606 L 2916.229 1499.57 Z" style="fill: rgb(66, 74, 82); fill-rule: evenodd; fill-opacity: 1;"/>
      <path d="M 3786.387 869.977 L 3922.621 1196.185 L 3647.288 1196.185 L 3786.387 869.977 Z M 3442.919 1499.358 L 3516.8 1499.358 L 3620.417 1260.47 L 3950.446 1260.47 L 4053.101 1499.358 L 4130.818 1499.358 L 3825.727 789.388 L 3746.107 789.388 L 3442.919 1499.358 Z" style="fill: rgb(66, 74, 82); fill-rule: evenodd; fill-opacity: 1;"/>
      <path d="M 4220.033 1499.57 L 4584.611 1499.57 L 4584.611 1435.292 L 4291.034 1435.292 L 4291.034 789.606 L 4220.033 789.606 L 4220.033 1499.57 Z" style="fill: rgb(66, 74, 82); fill-rule: evenodd; fill-opacity: 1; clip-path: url(#clippath0);"/>
      <path d="M 4657.486 1499.563 L 4728.472 1499.563 L 4728.472 789.599 L 4657.486 789.599 L 4657.486 1499.563 Z" style="fill: rgb(66, 74, 82); fill-rule: evenodd; fill-opacity: 1; clip-path: url(#clippath0);"/>
      <path d="M 5155.57 870.568 L 5291.804 1196.776 L 5016.471 1196.776 L 5155.57 870.568 Z M 4812.102 1499.949 L 4885.983 1499.949 L 4989.6 1261.061 L 5319.629 1261.061 L 5422.284 1499.949 L 5500.001 1499.949 L 5194.91 789.978 L 5115.29 789.978 L 4812.102 1499.949 Z" style="fill: rgb(66, 74, 82); fill-rule: evenodd; fill-opacity: 1; clip-path: url(#clip-1);"/>
    </g>
  </g>
</svg>